<svg xmlns="http://www.w3.org/2000/svg" width="109.812" height="29.031" viewBox="0 0 109.812 29.031"><defs><style>.cls-1{fill-rule:evenodd}</style></defs><path fill="#FFF" d="M17.405 13.489a5.757 5.757 0 0 1 2.772-4.833 5.982 5.982 0 0 0-4.694-2.512c-1.975-.206-3.891 1.169-4.9 1.169-1.026 0-2.575-1.149-4.244-1.115a6.257 6.257 0 0 0-5.261 3.175c-2.275 3.9-.579 9.627 1.6 12.778 1.09 1.543 2.364 3.266 4.032 3.206 1.631-.067 2.241-1.03 4.21-1.03 1.95 0 2.523 1.03 4.223.991 1.751-.028 2.854-1.55 3.906-3.107a12.7 12.7 0 0 0 1.786-3.6 5.578 5.578 0 0 1-3.43-5.122zm-3.212-9.418A5.636 5.636 0 0 0 15.504.008a5.853 5.853 0 0 0-3.773 1.932 5.36 5.36 0 0 0-1.345 3.913 4.843 4.843 0 0 0 3.807-1.782zm26.819 21.06h-2.28l-1.249-3.884h-4.341l-1.189 3.884h-2.22l4.3-13.224h2.656zm-3.9-5.514l-1.129-3.453q-.18-.53-.674-2.491h-.04q-.2.843-.635 2.491l-1.109 3.453h3.587zm14.966.629a5.387 5.387 0 0 1-1.328 3.845 3.9 3.9 0 0 1-2.954 1.256 2.963 2.963 0 0 1-2.736-1.354h-.04v5.024h-2.14V18.739q0-1.53-.08-3.139h1.883l.119 1.511h.041a3.832 3.832 0 0 1 6.1-.373 5.217 5.217 0 0 1 1.133 3.512zm-2.181.078a3.9 3.9 0 0 0-.634-2.3 2.2 2.2 0 0 0-1.863-.942 2.241 2.241 0 0 0-1.437.52 2.4 2.4 0 0 0-.842 1.364 2.72 2.72 0 0 0-.1.646v1.59a2.531 2.531 0 0 0 .645 1.757 2.145 2.145 0 0 0 1.674.716 2.2 2.2 0 0 0 1.883-.922 4.026 4.026 0 0 0 .672-2.422zm13.262-.078a5.383 5.383 0 0 1-1.329 3.845 3.9 3.9 0 0 1-2.953 1.256 2.959 2.959 0 0 1-2.735-1.354h-.04v5.024h-2.141V18.739q0-1.53-.079-3.139h1.883l.119 1.511h.04a3.833 3.833 0 0 1 6.1-.373 5.232 5.232 0 0 1 1.133 3.512zm-2.181.078a3.9 3.9 0 0 0-.635-2.3 2.2 2.2 0 0 0-1.863-.942 2.239 2.239 0 0 0-1.437.52 2.409 2.409 0 0 0-.842 1.364 2.817 2.817 0 0 0-.1.646v1.59a2.543 2.543 0 0 0 .642 1.757 2.151 2.151 0 0 0 1.677.716 2.2 2.2 0 0 0 1.883-.922 4.032 4.032 0 0 0 .673-2.422zm14.57 1.1a3.506 3.506 0 0 1-1.187 2.746 5.294 5.294 0 0 1-3.639 1.158 6.418 6.418 0 0 1-3.463-.824l.5-1.766a5.909 5.909 0 0 0 3.094.845 2.953 2.953 0 0 0 1.885-.54 1.761 1.761 0 0 0 .672-1.445 1.831 1.831 0 0 0-.555-1.356 5.183 5.183 0 0 0-1.843-1.022q-3.508-1.3-3.508-3.792a3.341 3.341 0 0 1 1.23-2.672 4.878 4.878 0 0 1 3.271-1.042 6.55 6.55 0 0 1 3.032.628l-.535 1.728a5.3 5.3 0 0 0-2.558-.609 2.6 2.6 0 0 0-1.762.55 1.561 1.561 0 0 0-.536 1.2 1.609 1.609 0 0 0 .614 1.3 6.961 6.961 0 0 0 1.943 1.021 6.6 6.6 0 0 1 2.537 1.607 3.336 3.336 0 0 1 .806 2.292zm7.077-4.237h-2.36v4.629q0 1.767 1.249 1.766a3.874 3.874 0 0 0 .951-.1l.059 1.608a4.867 4.867 0 0 1-1.664.235 2.581 2.581 0 0 1-1.983-.765 3.731 3.731 0 0 1-.714-2.571v-4.806h-1.406v-1.59h1.406v-1.746l2.1-.628v2.374h2.36v1.592zm10.645 3.1a5.2 5.2 0 0 1-1.269 3.61 4.555 4.555 0 0 1-3.53 1.452 4.332 4.332 0 0 1-3.379-1.392 5.041 5.041 0 0 1-1.259-3.512 5.145 5.145 0 0 1 1.3-3.629 4.515 4.515 0 0 1 3.5-1.413 4.424 4.424 0 0 1 3.41 1.393 4.982 4.982 0 0 1 1.225 3.493zm-2.221.069a4.259 4.259 0 0 0-.574-2.263 2.119 2.119 0 0 0-1.922-1.141 2.152 2.152 0 0 0-1.963 1.141 4.34 4.34 0 0 0-.574 2.3 4.253 4.253 0 0 0 .574 2.262 2.2 2.2 0 0 0 3.866-.02 4.275 4.275 0 0 0 .591-2.277zm9.178-2.895a3.736 3.736 0 0 0-.675-.059 2.028 2.028 0 0 0-1.744.845 3.148 3.148 0 0 0-.536 1.883v5h-2.139l.02-6.532q0-1.649-.08-3h1.864l.078 1.824h.06a3.257 3.257 0 0 1 1.07-1.51 2.605 2.605 0 0 1 1.547-.511 3.45 3.45 0 0 1 .535.039v2.02zm9.573 2.453a4.934 4.934 0 0 1-.078.961H103.3a2.756 2.756 0 0 0 .932 2.16 3.2 3.2 0 0 0 2.1.666 7.167 7.167 0 0 0 2.6-.451l.336 1.471a8.117 8.117 0 0 1-3.23.589 4.7 4.7 0 0 1-3.52-1.3 4.79 4.79 0 0 1-1.278-3.5 5.43 5.43 0 0 1 1.191-3.591 4.119 4.119 0 0 1 3.368-1.529 3.6 3.6 0 0 1 3.154 1.529 5.122 5.122 0 0 1 .845 2.997zm-2.041-.549a2.858 2.858 0 0 0-.416-1.629 1.875 1.875 0 0 0-1.706-.883 2.036 2.036 0 0 0-1.7.863 3.145 3.145 0 0 0-.634 1.648h4.459zM36.402 3.776a3.243 3.243 0 0 1-1.062 2.641 4.253 4.253 0 0 1-2.794.819 13.012 13.012 0 0 1-1.539-.078V.768a11.517 11.517 0 0 1 1.812-.135 3.932 3.932 0 0 1 2.6.742 2.985 2.985 0 0 1 .983 2.401zm-1.109.029a2.359 2.359 0 0 0-.609-1.745 2.408 2.408 0 0 0-1.778-.607 4.562 4.562 0 0 0-.847.067v4.858a5.59 5.59 0 0 0 .711.029 2.5 2.5 0 0 0 1.864-.665 2.643 2.643 0 0 0 .659-1.937zm6.991.992a2.551 2.551 0 0 1-.623 1.774 2.237 2.237 0 0 1-1.734.714 2.124 2.124 0 0 1-1.66-.685 2.476 2.476 0 0 1-.618-1.725 2.529 2.529 0 0 1 .638-1.783 2.221 2.221 0 0 1 1.718-.693 2.176 2.176 0 0 1 1.676.683 2.458 2.458 0 0 1 .603 1.715zm-1.091.034a2.1 2.1 0 0 0-.282-1.112 1.041 1.041 0 0 0-.944-.56 1.059 1.059 0 0 0-.965.56 2.137 2.137 0 0 0-.282 1.131 2.109 2.109 0 0 0 .282 1.112 1.065 1.065 0 0 0 .955.561 1.051 1.051 0 0 0 .944-.571 2.085 2.085 0 0 0 .292-1.121zm8.979-2.337l-1.481 4.684h-.964l-.614-2.034a15.081 15.081 0 0 1-.38-1.513h-.021a10.876 10.876 0 0 1-.381 1.513l-.651 2.034h-.968l-1.393-4.684h1.082l.535 2.227q.193.791.321 1.5h.019c.079-.391.208-.89.391-1.493l.671-2.236h.858l.643 2.188q.234.8.38 1.542h.029a14.688 14.688 0 0 1 .321-1.542l.574-2.188h1.034zm5.454 4.684h-1.052V4.495a.99.99 0 0 0-.954-1.24.956.956 0 0 0-.76.341 1.2 1.2 0 0 0-.292.8v2.778h-1.056V3.831c0-.412-.013-.858-.038-1.341h.924l.05.732h.029a1.509 1.509 0 0 1 .545-.565 1.79 1.79 0 0 1 .954-.263 1.52 1.52 0 0 1 1.1.424 2.052 2.052 0 0 1 .545 1.552v2.806zm2.9 0h-1.051V.345h1.051v6.833zm6.195-2.381a2.556 2.556 0 0 1-.623 1.774 2.24 2.24 0 0 1-1.734.714 2.124 2.124 0 0 1-1.661-.685 2.475 2.475 0 0 1-.617-1.725 2.533 2.533 0 0 1 .637-1.783 2.222 2.222 0 0 1 1.718-.693 2.178 2.178 0 0 1 1.677.683 2.462 2.462 0 0 1 .604 1.715zm-1.092.034a2.109 2.109 0 0 0-.282-1.112 1.041 1.041 0 0 0-.943-.56 1.056 1.056 0 0 0-.965.56 2.128 2.128 0 0 0-.282 1.131 2.1 2.1 0 0 0 .282 1.112 1.063 1.063 0 0 0 .955.561 1.048 1.048 0 0 0 .942-.571 2.077 2.077 0 0 0 .294-1.121zm6.183 2.347h-.945l-.078-.539h-.027a1.627 1.627 0 0 1-1.383.646 1.432 1.432 0 0 1-1.08-.425 1.321 1.321 0 0 1-.37-.954 1.451 1.451 0 0 1 .726-1.31 3.8 3.8 0 0 1 2.041-.443v-.088a.844.844 0 0 0-.983-.925 2.213 2.213 0 0 0-1.234.347l-.214-.684a3.063 3.063 0 0 1 1.623-.4 1.679 1.679 0 0 1 1.858 1.937v1.725a7.27 7.27 0 0 0 .066 1.113zM68.72 5.569v-.723q-1.741-.03-1.741.944a.7.7 0 0 0 .2.55.74.74 0 0 0 .514.183 1.067 1.067 0 0 0 .643-.217.885.885 0 0 0 .365-.555.866.866 0 0 0 .021-.182zm7.071 1.609h-.934l-.045-.747h-.029a1.577 1.577 0 0 1-1.52.859 1.79 1.79 0 0 1-1.422-.665 2.576 2.576 0 0 1-.564-1.725 2.7 2.7 0 0 1 .613-1.841 1.894 1.894 0 0 1 1.461-.656 1.421 1.421 0 0 1 1.333.636h.02V.35h1.054v5.571q-.002.679.035 1.257zM74.7 5.203v-.781a1.522 1.522 0 0 0-.029-.328 1.188 1.188 0 0 0-.38-.631 1.041 1.041 0 0 0-.7-.255 1.083 1.083 0 0 0-.926.463 1.967 1.967 0 0 0-.337 1.185 1.836 1.836 0 0 0 .323 1.128 1.087 1.087 0 0 0 .92.462 1.017 1.017 0 0 0 .831-.386 1.272 1.272 0 0 0 .3-.857zm10.089-.406a2.556 2.556 0 0 1-.623 1.774 2.236 2.236 0 0 1-1.734.714 2.13 2.13 0 0 1-1.661-.685 2.48 2.48 0 0 1-.617-1.725 2.533 2.533 0 0 1 .637-1.783 2.224 2.224 0 0 1 1.72-.693 2.174 2.174 0 0 1 1.675.683 2.462 2.462 0 0 1 .605 1.715zm-1.09.034a2.109 2.109 0 0 0-.282-1.112 1.043 1.043 0 0 0-.945-.56 1.06 1.06 0 0 0-.965.56 2.371 2.371 0 0 0 0 2.243 1.063 1.063 0 0 0 .955.561 1.053 1.053 0 0 0 .945-.571 2.1 2.1 0 0 0 .294-1.121zm6.747 2.347h-1.051V4.495a.99.99 0 0 0-.954-1.24.95.95 0 0 0-.759.341 1.2 1.2 0 0 0-.293.8v2.778h-1.053V3.831c0-.412-.012-.858-.037-1.341h.924l.049.732h.029a1.533 1.533 0 0 1 .545-.565 1.8 1.8 0 0 1 .955-.263 1.517 1.517 0 0 1 1.1.424 2.044 2.044 0 0 1 .545 1.552v2.806zm7.081-3.9h-1.158v2.276c0 .578.206.867.613.867a1.857 1.857 0 0 0 .469-.049l.027.79a2.373 2.373 0 0 1-.817.117 1.263 1.263 0 0 1-.973-.376 1.823 1.823 0 0 1-.351-1.263V3.278h-.692v-.78h.692V1.64l1.031-.308v1.165h1.158v.781zm5.57 3.9h-1.053V4.515q0-1.258-.952-1.26a1 1 0 0 0-1 .731 1.259 1.259 0 0 0-.05.374v2.817h-1.051V.345h1.051v2.823h.02a1.6 1.6 0 0 1 1.422-.77 1.474 1.474 0 0 1 1.082.424 2.117 2.117 0 0 1 .535 1.571v2.785zm5.746-2.563a2.512 2.512 0 0 1-.039.472h-3.156a1.364 1.364 0 0 0 .457 1.06 1.577 1.577 0 0 0 1.033.328 3.516 3.516 0 0 0 1.276-.222l.165.724a4.013 4.013 0 0 1-1.588.289 2.309 2.309 0 0 1-1.728-.641 2.346 2.346 0 0 1-.628-1.72 2.661 2.661 0 0 1 .585-1.764 2.019 2.019 0 0 1 1.654-.751 1.765 1.765 0 0 1 1.547.751 2.475 2.475 0 0 1 .424 1.474zm-1-.27a1.389 1.389 0 0 0-.2-.8.92.92 0 0 0-.837-.434 1 1 0 0 0-.837.424 1.575 1.575 0 0 0-.313.81h2.191z"/></svg>